<?xml version="1.0" encoding="utf-8"?>
<svg xmlns="http://www.w3.org/2000/svg" viewBox="0 0 24 24" fill="#000000"><path d="M 12 2 C 9.247419 2 6.7443969 3.123319 4.9335938 4.9335938 L 3 3 L 3 8 L 8 8 L 6.3457031 6.3457031 C 7.7940327 4.8959697 9.790268 4 12 4 C 16.419477 4 20 7.5805232 20 12 L 22 12 C 22 6.4954768 17.504523 2 12 2 z M 11.712891 5.5996094 L 11.712891 7.0273438 C 11.373891 7.0703437 9.4765625 7.42875 9.4765625 9.71875 C 9.4765625 13.05975 12.935547 12.069828 12.935547 14.298828 C 12.935547 15.414828 12.213406 15.441406 12.066406 15.441406 C 11.932406 15.441406 11.052734 15.512688 11.052734 13.804688 L 9.1621094 13.804688 C 9.1621094 16.696688 11.260266 16.927703 11.572266 16.970703 L 11.572266 18.300781 L 12.574219 18.300781 L 12.574219 16.970703 C 12.912219 16.928703 14.824219 16.613156 14.824219 14.285156 C 14.824219 11.080156 11.366234 11.693563 11.365234 9.7265625 C 11.365234 8.5995625 11.985141 8.5644531 12.119141 8.5644531 C 12.364141 8.5644531 12.947266 8.7812969 12.947266 10.154297 L 14.837891 10.154297 C 14.837891 7.5272969 13.041703 7.1176406 12.720703 7.0566406 L 12.720703 5.5996094 L 11.712891 5.5996094 z M 2 12 C 2 17.504523 6.4954768 22 12 22 C 14.752581 22 17.255603 20.876681 19.066406 19.066406 L 21 21 L 21 16 L 16 16 L 17.654297 17.654297 C 16.205967 19.104031 14.209732 20 12 20 C 7.5805232 20 4 16.419477 4 12 L 2 12 z" fill="#000000"/></svg>
