<?xml version="1.0" encoding="utf-8"?>
<svg xmlns="http://www.w3.org/2000/svg" viewBox="0 0 24 24" fill="#000000"><path d="M 5 3 C 3.895 3 3 3.895 3 5 C 3 6.105 3.895 7 5 7 C 6.105 7 7 6.105 7 5 C 7 3.895 6.105 3 5 3 z M 12 3 C 10.895 3 10 3.895 10 5 C 10 6.105 10.895 7 12 7 C 13.105 7 14 6.105 14 5 C 14 3.895 13.105 3 12 3 z M 19 3 C 17.895 3 17 3.895 17 5 C 17 6.105 17.895 7 19 7 C 20.105 7 21 6.105 21 5 C 21 3.895 20.105 3 19 3 z M 5 10 C 3.895 10 3 10.895 3 12 C 3 13.105 3.895 14 5 14 C 6.105 14 7 13.105 7 12 C 7 10.895 6.105 10 5 10 z M 12 10 C 10.895 10 10 10.895 10 12 C 10 13.105 10.895 14 12 14 C 13.105 14 14 13.105 14 12 C 14 10.895 13.105 10 12 10 z M 19 10 C 17.895 10 17 10.895 17 12 C 17 13.105 17.895 14 19 14 C 20.105 14 21 13.105 21 12 C 21 10.895 20.105 10 19 10 z M 5 17 C 3.895 17 3 17.895 3 19 C 3 20.105 3.895 21 5 21 C 6.105 21 7 20.105 7 19 C 7 17.895 6.105 17 5 17 z M 12 17 C 10.895 17 10 17.895 10 19 C 10 20.105 10.895 21 12 21 C 13.105 21 14 20.105 14 19 C 14 17.895 13.105 17 12 17 z M 19 17 C 17.895 17 17 17.895 17 19 C 17 20.105 17.895 21 19 21 C 20.105 21 21 20.105 21 19 C 21 17.895 20.105 17 19 17 z" fill="#000000"/></svg>
